<svg width="28" height="31" viewBox="0 0 28 31" fill="none" xmlns="http://www.w3.org/2000/svg">
<path d="M14.3711 0.176758C15.1071 0.244837 15.8127 0.515199 16.417 0.958984L16.7109 1.19531L16.7178 1.20117L26.5117 9.95996L26.6826 10.1182C27.0705 10.4999 27.3853 10.9569 27.6104 11.4629C27.8673 12.0408 28 12.6705 28 13.3076V26.4561C28 27.6185 27.5572 28.7347 26.7695 29.5566C25.982 30.3781 24.9143 30.8387 23.8008 30.8389H18.2188C18.2129 30.8389 18.207 30.8398 18.2012 30.8398C18.1953 30.8398 18.1894 30.8389 18.1836 30.8389H9.81836C9.81257 30.8389 9.80659 30.8398 9.80078 30.8398C9.79491 30.8398 9.78906 30.8389 9.7832 30.8389H4.2002C3.08646 30.8389 2.01809 30.3783 1.23047 29.5566C0.442806 28.7347 1.30801e-10 27.6185 1.308e-10 26.4561V13.3076C-4.81237e-06 12.6706 0.132789 12.0408 0.389648 11.4629C0.646765 10.8846 1.02273 10.3715 1.48926 9.95996L11.2822 1.20117L11.2891 1.19531L11.583 0.958984C12.2882 0.441045 13.1317 0.160194 14 0.160156L14.3711 0.176758ZM14 3.08203C13.6693 3.08207 13.3493 3.20409 13.0967 3.42676L13.0947 3.42578L3.30273 12.1846L3.2959 12.1914C3.14046 12.3286 3.01536 12.4997 2.92969 12.6924C2.84407 12.885 2.7998 13.0953 2.7998 13.3076V26.4561C2.7998 26.8434 2.9476 27.2163 3.20996 27.4902C3.47248 27.764 3.82906 27.917 4.2002 27.917H8.40137V17.6914C8.40137 16.9164 8.69657 16.173 9.22168 15.625C9.74676 15.0772 10.4587 14.7695 11.2012 14.7695H16.8008C17.5434 14.7695 18.2561 15.077 18.7812 15.625C19.3063 16.173 19.6016 16.9165 19.6016 17.6914V27.917H23.8008C24.1717 27.9169 24.5276 27.7639 24.79 27.4902C25.0525 27.2163 25.2002 26.8435 25.2002 26.4561V13.3076L25.1924 13.1494C25.1759 12.9917 25.1346 12.8369 25.0703 12.6924C24.9846 12.4997 24.8596 12.3286 24.7041 12.1914L24.6973 12.1846L14.9043 3.42578V3.42676C14.6831 3.23166 14.4096 3.11427 14.123 3.08789L14 3.08203ZM11.2012 27.917H16.8008V17.6914H11.2012V27.917Z" fill="#555555"/>
</svg>
