<svg width="102" height="102" viewBox="0 0 102 102" fill="none" xmlns="http://www.w3.org/2000/svg">
<path d="M89.8571 85C89.8571 83.0677 89.089 81.2151 87.7227 79.8488C86.3563 78.4824 84.5037 77.7143 82.5714 77.7143C80.6391 77.7143 78.7865 78.4824 77.4202 79.8488C76.0539 81.2151 75.2857 83.0677 75.2857 85L75.3237 85.721C75.4895 87.3884 76.2249 88.9559 77.4202 90.1512C78.7865 91.5176 80.6391 92.2857 82.5714 92.2857C84.5037 92.2857 86.3563 91.5176 87.7227 90.1512C89.089 88.7849 89.8571 86.9323 89.8571 85ZM24.2857 82.5714C24.2857 80.6391 23.5176 78.7865 22.1512 77.4202C20.9559 76.2249 19.3884 75.4895 17.721 75.3237L17 75.2857C15.0677 75.2857 13.2151 76.0539 11.8488 77.4202C10.4824 78.7865 9.71429 80.6391 9.71429 82.5714C9.71429 84.5037 10.4824 86.3563 11.8488 87.7227C13.2151 89.089 15.0677 89.8571 17 89.8571C18.9323 89.8571 20.7849 89.089 22.1512 87.7227C23.5176 86.3563 24.2857 84.5037 24.2857 82.5714ZM92.2478 18.7076C92.082 17.0401 91.3465 15.4726 90.1512 14.2773C88.7849 12.911 86.9323 12.1429 85 12.1429C83.0677 12.1429 81.2151 12.911 79.8488 14.2773C78.4824 15.6437 77.7143 17.4963 77.7143 19.4286C77.7143 20.7816 78.0962 22.0925 78.791 23.228C79.0413 23.6369 79.3325 24.0182 79.659 24.3711L79.8488 24.5798L80.38 25.0589C80.5646 25.2103 80.7556 25.3533 80.954 25.4858L81.5706 25.8557C81.7793 25.9671 81.9927 26.0689 82.2109 26.1593L82.8845 26.4012C83.1459 26.4805 83.413 26.5368 83.6814 26.5862C84.1138 26.6659 84.5541 26.7143 85 26.7143C85.4459 26.7143 85.8862 26.6659 86.3186 26.5862C86.8207 26.4937 87.3152 26.3556 87.7891 26.1593C88.0073 26.0689 88.2207 25.9671 88.4294 25.8557L89.046 25.4858C89.4422 25.2211 89.8127 24.9183 90.1512 24.5798C90.5578 24.1733 90.9054 23.716 91.2042 23.228C91.8998 22.092 92.2857 20.7825 92.2857 19.4286L92.2478 18.7076ZM19.4286 0C23.9373 0 28.26 1.79235 31.4481 4.98047C33.4623 6.99466 34.9175 9.46176 35.7171 12.1429H46.5603L45.1373 10.7199L44.8052 10.3499C43.2493 8.44213 43.359 5.62984 45.1373 3.85156C46.9156 2.07329 49.7278 1.96354 51.6356 3.51953L52.0056 3.85156L61.7199 13.5658L62.0519 13.9358C63.5042 15.7164 63.5042 18.2836 62.0519 20.0642L61.7199 20.4342L52.0056 30.1484C50.1087 32.0453 47.0341 32.0453 45.1373 30.1484C43.2404 28.2516 43.2404 25.177 45.1373 23.2801L46.5603 21.8571H35.7171C34.9175 24.5382 33.4623 27.0053 31.4481 29.0195C28.4595 32.0081 24.4742 33.7723 20.2729 33.981L19.4286 34C14.9199 34 10.5972 32.2076 7.40904 29.0195C4.22092 25.8314 2.42857 21.5087 2.42857 17C2.42857 12.4913 4.22092 8.16859 7.40904 4.98047C10.5972 1.79235 14.9199 0 19.4286 0ZM99.5714 85C99.5714 89.5087 97.7791 93.8314 94.591 97.0195C91.4028 100.208 87.0801 102 82.5714 102C78.0628 102 73.74 100.208 70.5519 97.0195C68.5377 95.0053 67.0825 92.5382 66.2829 89.8571H55.4397L56.8627 91.2801L57.1948 91.6501C58.7507 93.5579 58.641 96.3702 56.8627 98.1484C55.0844 99.9267 52.2722 100.036 50.3644 98.4805L49.9944 98.1484L40.2801 88.4342C38.3833 86.5373 38.3833 83.4627 40.2801 81.5658L49.9944 71.8516C51.8913 69.9547 54.9659 69.9547 56.8627 71.8516C58.7596 73.7484 58.7596 76.823 56.8627 78.7199L55.4397 80.1429H66.2829C67.0825 77.4618 68.5377 74.9947 70.5519 72.9805C73.74 69.7924 78.0628 68 82.5714 68C87.0801 68 91.4028 69.7924 94.591 72.9805C97.7791 76.1686 99.5714 80.4913 99.5714 85ZM34 82.5714C34 87.0801 32.2076 91.4028 29.0195 94.591C25.8314 97.7791 21.5087 99.5714 17 99.5714C12.4913 99.5714 8.16859 97.7791 4.98047 94.591C1.79235 91.4028 0 87.0801 0 82.5714C0 78.0628 1.79235 73.74 4.98047 70.5519C6.99499 68.5374 9.46125 67.0777 12.1429 66.2782V55.4397L10.7199 56.8627C8.82303 58.7596 5.74839 58.7596 3.85156 56.8627C1.95473 54.9659 1.95473 51.8913 3.85156 49.9944L13.5658 40.2801L13.9358 39.9481C15.8436 38.3921 18.6559 38.5019 20.4342 40.2801L30.1484 49.9944L30.4805 50.3644C32.0365 52.2722 31.9267 55.0844 30.1484 56.8627C28.3702 58.641 25.5579 58.7507 23.6501 57.1948L23.2801 56.8627L21.8571 55.4397V66.2782C24.5387 67.0777 27.005 68.5374 29.0195 70.5519C32.2076 73.74 34 78.0628 34 82.5714ZM101.981 20.2634C101.96 20.6922 101.916 21.1189 101.862 21.5441C101.837 21.7472 101.81 21.9496 101.777 22.1512C101.567 23.4463 101.21 24.7185 100.705 25.9364L100.368 26.7001C100.366 26.7052 100.361 26.7092 100.359 26.7143C100.061 27.3425 99.7224 27.9516 99.3485 28.5405C98.6823 29.5896 97.9025 30.5651 97.0195 31.4481C96.4277 32.04 95.7963 32.5882 95.127 33.0845C94.5231 33.5324 93.8883 33.9319 93.2344 34.2941C92.6751 34.6039 92.1008 34.8879 91.5078 35.1337L90.7252 35.4372C90.4386 35.5397 90.1483 35.6303 89.8571 35.7171V46.5603L91.2801 45.1373C93.177 43.2404 96.2516 43.2404 98.1484 45.1373C100.045 47.0341 100.045 50.1087 98.1484 52.0056L88.4342 61.7199C86.5373 63.6167 83.4627 63.6167 81.5658 61.7199L71.8516 52.0056L71.5195 51.6356C69.9635 49.7278 70.0733 46.9156 71.8516 45.1373C73.6298 43.359 76.4421 43.2493 78.3499 44.8052L78.7199 45.1373L80.1429 46.5603V35.7171C79.585 35.5507 79.032 35.3573 78.4922 35.1337C77.8979 34.8874 77.3213 34.6047 76.7609 34.2941C76.1083 33.9324 75.4758 33.5315 74.873 33.0845C74.4267 32.7535 73.9957 32.4009 73.5829 32.0268L72.9805 31.4481L72.4018 30.8457C71.7524 30.1292 71.1734 29.3545 70.6562 28.5405C70.2818 27.951 69.9395 27.3432 69.6412 26.7143C69.5196 26.4581 69.4037 26.1989 69.2949 25.9364C68.7905 24.7185 68.4331 23.4463 68.2229 22.1512C68.1902 21.9496 68.163 21.7472 68.1376 21.5441C68.0842 21.1189 68.0401 20.6922 68.019 20.2634L68 19.4286C68 14.9199 69.7924 10.5972 72.9805 7.40904C76.1686 4.22092 80.4913 2.42857 85 2.42857C89.5087 2.42857 93.8314 4.22092 97.0195 7.40904C100.208 10.5972 102 14.9199 102 19.4286L101.981 20.2634ZM12.1429 17C12.1429 18.9323 12.911 20.7849 14.2773 22.1512C15.6437 23.5176 17.4963 24.2857 19.4286 24.2857L20.1496 24.2478C21.817 24.082 23.3845 23.3465 24.5798 22.1512C25.9461 20.7849 26.7143 18.9323 26.7143 17C26.7143 15.0677 25.9461 13.2151 24.5798 11.8488C23.2135 10.4824 21.3609 9.71429 19.4286 9.71429C17.4963 9.71429 15.6437 10.4824 14.2773 11.8488C12.911 13.2151 12.1429 15.0677 12.1429 17Z" fill="#FFBA37"/>
</svg>
