<svg width="32" height="32" viewBox="0 0 32 32" fill="none" xmlns="http://www.w3.org/2000/svg">
<path fill-rule="evenodd" clip-rule="evenodd" d="M26.243 1.35795C26.295 1.58237 26.3022 1.81484 26.2642 2.04205C26.2262 2.26925 26.1438 2.48675 26.0218 2.68209C25.8997 2.87744 25.7403 3.0468 25.5527 3.18049C25.3651 3.31419 25.153 3.40959 24.9285 3.46125L21.0304 4.35866V12.2688H28.0414C28.9711 12.2688 29.8627 12.6382 30.5201 13.2956C31.1775 13.953 31.5469 14.8446 31.5469 15.7743V28.0436C31.5469 28.9733 31.1775 29.865 30.5201 30.5224C29.8627 31.1798 28.9711 31.5491 28.0414 31.5491H5.25556C4.32584 31.5491 3.4342 31.1798 2.77679 30.5224C2.11938 29.865 1.75005 28.9733 1.75005 28.0436V8.76333C1.32003 8.76267 0.905259 8.60394 0.584652 8.31736C0.264046 8.03078 0.0599795 7.63633 0.0112802 7.20908C-0.0374192 6.78182 0.0726471 6.35157 0.320537 6.00019C0.568428 5.64881 0.936842 5.40081 1.35568 5.3034L24.1415 0.0451326C24.3659 -0.00680619 24.5984 -0.0139958 24.8256 0.0239748C25.0528 0.0619454 25.2703 0.144331 25.4656 0.266422C25.661 0.388512 25.8303 0.547911 25.964 0.735505C26.0977 0.923098 26.1931 1.13521 26.2448 1.3597M28.0414 15.7743H12.2666V28.0436H15.7721V22.7854C15.7718 21.901 16.1058 21.0491 16.7072 20.4007C17.3085 19.7522 18.1328 19.3549 19.0147 19.2886L19.2776 19.2799H21.0304C21.9147 19.2796 22.7666 19.6136 23.4151 20.2149C24.0635 20.8163 24.4608 21.6405 24.5271 22.5225L24.5359 22.7854V28.0436H28.0414V15.7743ZM21.0304 22.7854H19.2776V28.0436H21.0304V22.7854ZM8.76107 7.19111L5.25556 8.00088V28.0436H8.76107V7.19111ZM17.5248 5.16843L12.2666 6.38309V12.2688H17.5248V5.16843Z" fill="#555555"/>
</svg>
