<svg width="36" height="33" viewBox="0 0 36 33" fill="none" xmlns="http://www.w3.org/2000/svg">
<path d="M19.8004 10.4205V24.3145C19.8004 25.6963 19.2315 27.0216 18.2188 27.9987C17.2061 28.9758 15.8327 29.5247 14.4005 29.5247H10.4946C10.07 30.684 9.2343 31.6611 8.13523 32.2833C7.03616 32.9056 5.74449 33.1328 4.48855 32.925C3.2326 32.7171 2.09325 32.0876 1.27188 31.1475C0.450502 30.2075 0 29.0175 0 27.788C0 26.5585 0.450502 25.3685 1.27188 24.4285C2.09325 23.4884 3.2326 22.8589 4.48855 22.651C5.74449 22.4432 7.03616 22.6704 8.13523 23.2927C9.2343 23.9149 10.07 24.892 10.4946 26.0513H14.4005C14.8779 26.0513 15.3357 25.8683 15.6733 25.5426C16.0108 25.2169 16.2005 24.7751 16.2005 24.3145V10.4205C16.2005 9.03866 16.7694 7.71341 17.7821 6.7363C18.7947 5.75919 20.1682 5.21025 21.6004 5.21025H27.0002V0L36 6.947L27.0002 13.894V8.68375H21.6004C21.123 8.68375 20.6651 8.86673 20.3276 9.19243C19.99 9.51814 19.8004 9.95989 19.8004 10.4205ZM5.40075 29.5247C5.87812 29.5247 6.33595 29.3418 6.67351 29.0161C7.01106 28.6904 7.2007 28.2486 7.2007 27.788C7.2007 27.3274 7.01106 26.8856 6.67351 26.5599C6.33595 26.2342 5.87812 26.0513 5.40075 26.0513C4.92337 26.0513 4.46554 26.2342 4.12799 26.5599C3.79043 26.8856 3.60079 27.3274 3.60079 27.788C3.60079 28.2486 3.79043 28.6904 4.12799 29.0161C4.46554 29.3418 4.92337 29.5247 5.40075 29.5247Z" fill="#555555"/>
</svg>
