<svg width="32" height="31" viewBox="0 0 32 31" fill="none" xmlns="http://www.w3.org/2000/svg">
<path d="M16 15.5C13.8687 15.5 12.0443 14.7411 10.5266 13.2234C9.00885 11.7057 8.25 9.88125 8.25 7.75C8.25 5.61875 9.00885 3.79427 10.5266 2.27656C12.0443 0.758854 13.8687 0 16 0C18.1312 0 19.9557 0.758854 21.4734 2.27656C22.9911 3.79427 23.75 5.61875 23.75 7.75C23.75 9.88125 22.9911 11.7057 21.4734 13.2234C19.9557 14.7411 18.1312 15.5 16 15.5ZM0.5 27.125V25.575C0.5 24.4771 0.782875 23.4683 1.34863 22.5486C1.91438 21.629 2.66483 20.9263 3.6 20.4406C5.60208 19.4396 7.63646 18.6891 9.70312 18.1892C11.7698 17.6894 13.8687 17.4388 16 17.4375C18.1312 17.4362 20.2302 17.6868 22.2969 18.1892C24.3635 18.6917 26.3979 19.4422 28.4 20.4406C29.3365 20.925 30.0876 21.6277 30.6533 22.5486C31.2191 23.4696 31.5013 24.4784 31.5 25.575V27.125C31.5 28.1906 31.1209 29.1032 30.3627 29.8627C29.6045 30.6222 28.6919 31.0013 27.625 31H4.375C3.30937 31 2.39746 30.6209 1.63925 29.8627C0.881041 29.1045 0.501292 28.1919 0.5 27.125ZM4.375 27.125H27.625V25.575C27.625 25.2198 27.5365 24.8969 27.3596 24.6062C27.1826 24.3156 26.9482 24.0896 26.6562 23.9281C24.9125 23.0562 23.1526 22.4027 21.3766 21.9674C19.6005 21.5321 17.8083 21.3138 16 21.3125C14.1917 21.3112 12.3995 21.5295 10.6234 21.9674C8.8474 22.4052 7.0875 23.0588 5.34375 23.9281C5.05312 24.0896 4.81869 24.3156 4.64044 24.6062C4.46219 24.8969 4.37371 25.2198 4.375 25.575V27.125ZM16 11.625C17.0656 11.625 17.9782 11.2459 18.7377 10.4877C19.4972 9.72948 19.8763 8.81692 19.875 7.75C19.8737 6.68308 19.4946 5.77117 18.7377 5.01425C17.9808 4.25733 17.0682 3.87758 16 3.875C14.9318 3.87242 14.0199 4.25217 13.2642 5.01425C12.5086 5.77633 12.1289 6.68825 12.125 7.75C12.1211 8.81175 12.5009 9.72431 13.2642 10.4877C14.0276 11.2511 14.9395 11.6302 16 11.625Z" fill="#555555"/>
</svg>
