<svg width="24" height="33" viewBox="0 0 24 33" fill="none" xmlns="http://www.w3.org/2000/svg">
<path d="M12 33C11.6 33 11.2571 32.89 10.9714 32.67C10.6857 32.45 10.4714 32.1612 10.3286 31.8037C9.78572 30.2637 9.1 28.82 8.27143 27.4725C7.47143 26.125 6.34286 24.5437 4.88572 22.7287C3.42857 20.9137 2.24286 19.1812 1.32857 17.5312C0.442857 15.8812 0 13.8875 0 11.55C0 8.3325 1.15714 5.61 3.47143 3.3825C5.81429 1.1275 8.65714 0 12 0C15.3429 0 18.1714 1.1275 20.4857 3.3825C22.8286 5.61 24 8.3325 24 11.55C24 14.0525 23.5 16.1425 22.5 17.82C21.5286 19.47 20.4 21.1062 19.1143 22.7287C17.5714 24.7087 16.4 26.3587 15.6 27.6787C14.8286 28.9712 14.1857 30.3462 13.6714 31.8037C13.5286 32.1887 13.3 32.4912 12.9857 32.7113C12.7 32.9038 12.3714 33 12 33ZM12 27.1012C12.4857 26.1662 13.0286 25.245 13.6286 24.3375C14.2571 23.43 15.1714 22.22 16.3714 20.7075C17.6 19.1675 18.6 17.7512 19.3714 16.4587C20.1714 15.1387 20.5714 13.5025 20.5714 11.55C20.5714 9.2675 19.7286 7.32875 18.0429 5.73375C16.3857 4.11125 14.3714 3.3 12 3.3C9.62857 3.3 7.6 4.11125 5.91429 5.73375C4.25714 7.32875 3.42857 9.2675 3.42857 11.55C3.42857 13.5025 3.81429 15.1387 4.58571 16.4587C5.38571 17.7512 6.4 19.1675 7.62857 20.7075C8.82857 22.22 9.72857 23.43 10.3286 24.3375C10.9571 25.245 11.5143 26.1662 12 27.1012ZM12 15.675C13.2 15.675 14.2143 15.2762 15.0429 14.4787C15.8714 13.6813 16.2857 12.705 16.2857 11.55C16.2857 10.395 15.8714 9.41875 15.0429 8.62125C14.2143 7.82375 13.2 7.425 12 7.425C10.8 7.425 9.78572 7.82375 8.95714 8.62125C8.12857 9.41875 7.71429 10.395 7.71429 11.55C7.71429 12.705 8.12857 13.6813 8.95714 14.4787C9.78572 15.2762 10.8 15.675 12 15.675Z" fill="#1D1B20"/>
</svg>
